<?xml version="1.0" standalone="no"?>
<!DOCTYPE svg PUBLIC "-//W3C//DTD SVG 20010904//EN"
 "http://www.w3.org/TR/2001/REC-SVG-20010904/DTD/svg10.dtd">
<svg version="1.0" xmlns="http://www.w3.org/2000/svg"
 width="1924.000000pt" height="1924.000000pt" viewBox="0 0 1924.000000 1924.000000"
 preserveAspectRatio="xMidYMid meet">
<metadata>
Created by potrace 1.11, written by Peter Selinger 2001-2013
</metadata>
<g transform="translate(0.000000,1924.000000) scale(0.100000,-0.100000)"
fill="#000000" stroke="none">
<path d="M1620 9610 l0 -9150 8000 0 8000 0 0 900 0 900 -7100 0 -7100 0 0
8250 0 8250 -900 0 -900 0 0 -9150z"/>
<path d="M3936 10763 c1 -4399 2 -8000 3 -8003 1 -3 405 -5 899 -4 493 1 3571
2 6840 3 l5942 1 0 900 0 900 -5942 0 -5943 0 0 6198 0 6197 5943 3 5942 2 0
900 0 900 -6843 0 -6843 0 2 -7997z"/>
<path d="M6227 16445 c-2 -5 -3 -2568 -3 -5695 l1 -5685 5698 -3 5697 -2 0
900 0 900 -4798 0 -4797 0 0 4795 c0 2637 -2 4796 -5 4796 -3 1 -407 2 -897 3
-591 1 -894 -2 -896 -9z"/>
<path d="M8514 11909 l2 -4552 4550 0 4549 0 0 4534 c1 2494 -3 4542 -7 4552
-8 16 -235 17 -4552 17 l-4543 0 1 -4551z m7301 1 l0 -2745 -2750 0 -2750 0 0
2748 0 2747 2750 -2 2750 -3 0 -2745z"/>
</g>
</svg>
